<svg width="29" height="32" viewBox="0 0 29 32" fill="none" xmlns="http://www.w3.org/2000/svg">
<path fill-rule="evenodd" clip-rule="evenodd" d="M11.0638 5.08627L8.5733 4.10394C8.29874 3.99578 8.08156 3.77831 7.97312 3.50375L6.99079 1.0132C6.57381 -0.337734 5.42617 -0.337733 5.0092 1.0132L4.02687 3.50375C3.91871 3.77831 3.70124 3.99549 3.42669 4.10394L0.936145 5.08627C-0.312087 5.40049 -0.312072 6.54813 0.936145 7.06787L3.42669 8.0502C3.70124 8.15836 3.91842 8.37583 4.02687 8.65039L5.0092 11.1409C5.42617 12.2864 6.57381 12.2864 6.99079 11.1409L7.97312 8.65039C8.08128 8.37583 8.29874 8.15865 8.5733 8.0502L11.0638 7.06787C12.312 6.54813 12.312 5.40049 11.0638 5.08627ZM27.2811 16.8638L22.9408 15.1519C22.4623 14.9634 22.0838 14.5845 21.8948 14.106L20.1829 9.7657C19.4563 7.41143 17.4563 7.41143 16.7296 9.7657L15.0177 14.106C14.8292 14.5845 14.4502 14.9629 13.9717 15.1519L9.63145 16.8638C7.45615 17.4114 7.45617 19.4114 9.63145 20.3172L13.9717 22.0291C14.4502 22.2176 14.8287 22.5966 15.0177 23.075L16.7296 27.4153C17.4563 29.4114 19.4563 29.4114 20.1829 27.4153L21.8948 23.075C22.0833 22.5966 22.4623 22.2181 22.9408 22.0291L27.2811 20.3172C29.4563 19.4114 29.4563 17.4114 27.2811 16.8638ZM5.71553 26.736L7.37589 27.3909C8.208 27.6003 8.208 28.3654 7.37589 28.7119L5.71553 29.3668C5.53249 29.4391 5.38751 29.5839 5.3154 29.7669L4.66051 31.4273C4.38253 32.1909 3.61744 32.1909 3.33946 31.4273L2.68457 29.7669C2.61227 29.5839 2.46749 29.4389 2.28445 29.3668L0.624087 28.7119C-0.208058 28.3654 -0.208068 27.6003 0.624087 27.3909L2.28445 26.736C2.46749 26.6637 2.61246 26.5189 2.68457 26.3358L3.33946 24.6755C3.61744 23.7748 4.38253 23.7748 4.66051 24.6755L5.3154 26.3358C5.3877 26.5189 5.53249 26.6639 5.71553 26.736Z" fill="black"/>
</svg>
