<svg width="22" height="22" viewBox="0 0 22 22" fill="none" xmlns="http://www.w3.org/2000/svg">
<path d="M19.8249 9.45242L15.4846 7.7405C15.0062 7.55201 14.6277 7.17303 14.4387 6.69456L12.7268 2.35427C12.0001 5.96046e-07 10.0001 2.26498e-06 9.27345 2.35427L7.56153 6.69456C7.37304 7.17303 6.99406 7.55151 6.51559 7.7405L2.1753 9.45242C0 10 2.55108e-05 12 2.1753 12.9057L6.51559 14.6177C6.99406 14.8062 7.37254 15.1851 7.56153 15.6636L9.27345 20.0039C10.0001 22 12.0001 22 12.7268 20.0039L14.4387 15.6636C14.6272 15.1851 15.0062 14.8067 15.4846 14.6177L19.8249 12.9057C22.0001 12 22.0001 10 19.8249 9.45242Z" fill="black"/>
</svg>
